{
    "asset" : {
        "generator" : "Khronos glTF Blender I/O v1.6.16",
        "version" : "2.0"
    },
    "scene" : 0,
    "scenes" : [
        {
            "name" : "Scene",
            "nodes" : [
                5,
                6,
                7
            ]
        }
    ],
    "nodes" : [
        {
            "mesh" : 0,
            "name" : "Cylinder_0"
        },
        {
            "mesh" : 1,
            "name" : "Cylinder_1"
        },
        {
            "mesh" : 2,
            "name" : "Cylinder_2"
        },
        {
            "children" : [
                0,
                1,
                2
            ],
            "name" : "Cylinder",
            "scale" : [
                0.05000000074505806,
                0.05000000074505806,
                0.9140899777412415
            ]
        },
        {
            "children" : [
                3
            ],
            "name" : "Root"
        },
        {
            "children" : [
                4
            ],
            "name" : "Sketchfab_model",
            "rotation" : [
                -0.49756839871406555,
                -0.499935507774353,
                -0.500064492225647,
                0.5024198293685913
            ],
            "translation" : [
                -0.003753027180209756,
                -1.8146160073229112e-05,
                -0.0004774951084982604
            ]
        },
        {
            "name" : "Light",
            "rotation" : [
                0.16907575726509094,
                0.7558803558349609,
                -0.27217137813568115,
                0.570947527885437
            ],
            "translation" : [
                4.076245307922363,
                5.903861999511719,
                -1.0054539442062378
            ]
        },
        {
            "name" : "Camera",
            "rotation" : [
                0.5,
                -0.5,
                -0.5,
                0.4999999701976776
            ],
            "translation" : [
                -0.0872129499912262,
                -0.06515100598335266,
                6.973691940307617
            ]
        }
    ],
    "materials" : [
        {
            "doubleSided" : true,
            "name" : "SpearWood",
            "pbrMetallicRoughness" : {
                "baseColorFactor" : [
                    0.17886173725128174,
                    0.08851461857557297,
                    0.02935798093676567,
                    1
                ],
                "metallicFactor" : 0,
                "roughnessFactor" : 0.6000000238418579
            }
        },
        {
            "doubleSided" : true,
            "name" : "SpearStone",
            "pbrMetallicRoughness" : {
                "baseColorFactor" : [
                    0.12493956089019775,
                    0.16715829074382782,
                    0.22025711834430695,
                    1
                ],
                "metallicFactor" : 0,
                "roughnessFactor" : 0.6000000238418579
            }
        },
        {
            "doubleSided" : true,
            "name" : "SpearVines",
            "pbrMetallicRoughness" : {
                "baseColorFactor" : [
                    0.0965505987405777,
                    0.13286353647708893,
                    0.037923119962215424,
                    1
                ],
                "metallicFactor" : 0,
                "roughnessFactor" : 0.6000000238418579
            }
        }
    ],
    "meshes" : [
        {
            "name" : "Cylinder_0",
            "primitives" : [
                {
                    "attributes" : {
                        "POSITION" : 0,
                        "NORMAL" : 1
                    },
                    "indices" : 2,
                    "material" : 0
                }
            ]
        },
        {
            "name" : "Cylinder_1",
            "primitives" : [
                {
                    "attributes" : {
                        "POSITION" : 3,
                        "NORMAL" : 4
                    },
                    "indices" : 5,
                    "material" : 1
                }
            ]
        },
        {
            "name" : "Cylinder_2",
            "primitives" : [
                {
                    "attributes" : {
                        "POSITION" : 6,
                        "NORMAL" : 7
                    },
                    "indices" : 8,
                    "material" : 2
                }
            ]
        }
    ],
    "accessors" : [
        {
            "bufferView" : 0,
            "componentType" : 5126,
            "count" : 403,
            "max" : [
                1.4369699954986572,
                1.489590048789978,
                0.45054998993873596
            ],
            "min" : [
                -0.9848099946975708,
                -1.2601900100708008,
                -1.6925400495529175
            ],
            "type" : "VEC3"
        },
        {
            "bufferView" : 1,
            "componentType" : 5126,
            "count" : 403,
            "type" : "VEC3"
        },
        {
            "bufferView" : 2,
            "componentType" : 5123,
            "count" : 420,
            "type" : "SCALAR"
        },
        {
            "bufferView" : 3,
            "componentType" : 5126,
            "count" : 171,
            "max" : [
                0.285290002822876,
                1.5970799922943115,
                0.9144499897956848
            ],
            "min" : [
                -0.285290002822876,
                -1.6661100387573242,
                0.35117998719215393
            ],
            "type" : "VEC3"
        },
        {
            "bufferView" : 4,
            "componentType" : 5126,
            "count" : 171,
            "type" : "VEC3"
        },
        {
            "bufferView" : 5,
            "componentType" : 5123,
            "count" : 228,
            "type" : "SCALAR"
        },
        {
            "bufferView" : 6,
            "componentType" : 5126,
            "count" : 108,
            "max" : [
                1.506909966468811,
                2.3287100791931152,
                0.4614199995994568
            ],
            "min" : [
                -1.5034099817276,
                -2.242269992828369,
                0.3567599952220917
            ],
            "type" : "VEC3"
        },
        {
            "bufferView" : 7,
            "componentType" : 5126,
            "count" : 108,
            "type" : "VEC3"
        },
        {
            "bufferView" : 8,
            "componentType" : 5123,
            "count" : 108,
            "type" : "SCALAR"
        }
    ],
    "bufferViews" : [
        {
            "buffer" : 0,
            "byteLength" : 4836,
            "byteOffset" : 0
        },
        {
            "buffer" : 0,
            "byteLength" : 4836,
            "byteOffset" : 4836
        },
        {
            "buffer" : 0,
            "byteLength" : 840,
            "byteOffset" : 9672
        },
        {
            "buffer" : 0,
            "byteLength" : 2052,
            "byteOffset" : 10512
        },
        {
            "buffer" : 0,
            "byteLength" : 2052,
            "byteOffset" : 12564
        },
        {
            "buffer" : 0,
            "byteLength" : 456,
            "byteOffset" : 14616
        },
        {
            "buffer" : 0,
            "byteLength" : 1296,
            "byteOffset" : 15072
        },
        {
            "buffer" : 0,
            "byteLength" : 1296,
            "byteOffset" : 16368
        },
        {
            "buffer" : 0,
            "byteLength" : 216,
            "byteOffset" : 17664
        }
    ],
    "buffers" : [
        {
            "byteLength" : 17880,
            "uri" : "data:application/octet-stream;base64,"
        }
    ]
}
