{
    "asset" : {
        "generator" : "Khronos glTF Blender I/O v1.5.17",
        "version" : "2.0"
    },
    "scene" : 0,
    "scenes" : [
        {
            "name" : "Scene",
            "nodes" : [
                0
            ]
        }
    ],
    "nodes" : [
        {
            "mesh" : 0,
            "name" : "SM_Env_Flower_01",
            "rotation" : [
                0.7071068286895752,
                0,
                0,
                0.7071067094802856
            ],
            "scale" : [
                0.009999999776482582,
                0.009999999776482582,
                0.009999999776482582
            ]
        }
    ],
    "materials" : [
        {
            "doubleSided" : true,
            "name" : "AdventureMaterial",
            "pbrMetallicRoughness" : {
                "baseColorTexture" : {
                    "index" : 0
                },
                "metallicFactor" : 0.5,
                "roughnessFactor" : 0.7354946732521057
            }
        }
    ],
    "meshes" : [
        {
            "name" : "Mesh.054",
            "primitives" : [
                {
                    "attributes" : {
                        "POSITION" : 0,
                        "NORMAL" : 1,
                        "TANGENT" : 2,
                        "TEXCOORD_0" : 3,
                        "TEXCOORD_1" : 4
                    },
                    "indices" : 5,
                    "material" : 0
                }
            ]
        }
    ],
    "textures" : [
        {
            "sampler" : 0,
            "source" : 0
        }
    ],
    "images" : [
        {
            "bufferView" : 6,
            "mimeType" : "image/png",
            "name" : "PolyAdventureTexture_01"
        }
    ],
    "accessors" : [
        {
            "bufferView" : 0,
            "componentType" : 5126,
            "count" : 268,
            "max" : [
                11.717094421386719,
                10.879886627197266,
                0
            ],
            "min" : [
                -11.717041015625,
                -10.879838943481445,
                -32.08785629272461
            ],
            "type" : "VEC3"
        },
        {
            "bufferView" : 1,
            "componentType" : 5126,
            "count" : 268,
            "type" : "VEC3"
        },
        {
            "bufferView" : 2,
            "componentType" : 5126,
            "count" : 268,
            "type" : "VEC4"
        },
        {
            "bufferView" : 3,
            "componentType" : 5126,
            "count" : 268,
            "type" : "VEC2"
        },
        {
            "bufferView" : 4,
            "componentType" : 5126,
            "count" : 268,
            "type" : "VEC2"
        },
        {
            "bufferView" : 5,
            "componentType" : 5123,
            "count" : 282,
            "type" : "SCALAR"
        }
    ],
    "bufferViews" : [
        {
            "buffer" : 0,
            "byteLength" : 3216,
            "byteOffset" : 0
        },
        {
            "buffer" : 0,
            "byteLength" : 3216,
            "byteOffset" : 3216
        },
        {
            "buffer" : 0,
            "byteLength" : 4288,
            "byteOffset" : 6432
        },
        {
            "buffer" : 0,
            "byteLength" : 2144,
            "byteOffset" : 10720
        },
        {
            "buffer" : 0,
            "byteLength" : 2144,
            "byteOffset" : 12864
        },
        {
            "buffer" : 0,
            "byteLength" : 564,
            "byteOffset" : 15008
        },
        {
            "buffer" : 0,
            "byteLength" : 23856,
            "byteOffset" : 15572
        }
    ],
    "samplers" : [
        {
            "magFilter" : 9729,
            "minFilter" : 9987
        }
    ],
    "buffers" : [
        {
            "byteLength" : 39428,
            "uri" : "data:application/octet-stream;base64,"
        }
    ]
}
