{
    "asset" : {
        "generator" : "Khronos glTF Blender I/O v1.5.17",
        "version" : "2.0"
    },
    "scene" : 0,
    "scenes" : [
        {
            "name" : "Scene",
            "nodes" : [
                0
            ]
        }
    ],
    "nodes" : [
        {
            "mesh" : 0,
            "name" : "SM_Env_Rock_09",
            "rotation" : [
                0.7071068286895752,
                0,
                0,
                0.7071067094802856
            ],
            "scale" : [
                0.009999999776482582,
                0.009999999776482582,
                0.009999999776482582
            ]
        }
    ],
    "materials" : [
        {
            "doubleSided" : true,
            "name" : "AdventureMaterial",
            "pbrMetallicRoughness" : {
                "baseColorTexture" : {
                    "index" : 0
                },
                "metallicFactor" : 0.5,
                "roughnessFactor" : 0.7354946732521057
            }
        }
    ],
    "meshes" : [
        {
            "name" : "Mesh.126",
            "primitives" : [
                {
                    "attributes" : {
                        "POSITION" : 0,
                        "NORMAL" : 1,
                        "TANGENT" : 2,
                        "TEXCOORD_0" : 3,
                        "TEXCOORD_1" : 4
                    },
                    "indices" : 5,
                    "material" : 0
                }
            ]
        }
    ],
    "textures" : [
        {
            "sampler" : 0,
            "source" : 0
        }
    ],
    "images" : [
        {
            "bufferView" : 6,
            "mimeType" : "image/png",
            "name" : "PolyAdventureTexture_01"
        }
    ],
    "accessors" : [
        {
            "bufferView" : 0,
            "componentType" : 5126,
            "count" : 467,
            "max" : [
                38.93310546875,
                33.34051513671875,
                11.201327323913574
            ],
            "min" : [
                -38.93292236328125,
                -33.340423583984375,
                -57.47927474975586
            ],
            "type" : "VEC3"
        },
        {
            "bufferView" : 1,
            "componentType" : 5126,
            "count" : 467,
            "type" : "VEC3"
        },
        {
            "bufferView" : 2,
            "componentType" : 5126,
            "count" : 467,
            "type" : "VEC4"
        },
        {
            "bufferView" : 3,
            "componentType" : 5126,
            "count" : 467,
            "type" : "VEC2"
        },
        {
            "bufferView" : 4,
            "componentType" : 5126,
            "count" : 467,
            "type" : "VEC2"
        },
        {
            "bufferView" : 5,
            "componentType" : 5123,
            "count" : 630,
            "type" : "SCALAR"
        }
    ],
    "bufferViews" : [
        {
            "buffer" : 0,
            "byteLength" : 5604,
            "byteOffset" : 0
        },
        {
            "buffer" : 0,
            "byteLength" : 5604,
            "byteOffset" : 5604
        },
        {
            "buffer" : 0,
            "byteLength" : 7472,
            "byteOffset" : 11208
        },
        {
            "buffer" : 0,
            "byteLength" : 3736,
            "byteOffset" : 18680
        },
        {
            "buffer" : 0,
            "byteLength" : 3736,
            "byteOffset" : 22416
        },
        {
            "buffer" : 0,
            "byteLength" : 1260,
            "byteOffset" : 26152
        },
        {
            "buffer" : 0,
            "byteLength" : 23856,
            "byteOffset" : 27412
        }
    ],
    "samplers" : [
        {
            "magFilter" : 9729,
            "minFilter" : 9987
        }
    ],
    "buffers" : [
        {
            "byteLength" : 51268,
            "uri" : "data:application/octet-stream;base64,"
        }
    ]
}
