{
    "asset" : {
        "generator" : "Khronos glTF Blender I/O v1.5.17",
        "version" : "2.0"
    },
    "scene" : 0,
    "scenes" : [
        {
            "name" : "Scene",
            "nodes" : [
                0
            ]
        }
    ],
    "nodes" : [
        {
            "mesh" : 0,
            "name" : "SM_Env_Bush_03",
            "rotation" : [
                0.7071068286895752,
                0,
                0,
                0.7071067094802856
            ],
            "scale" : [
                0.009999999776482582,
                0.009999999776482582,
                0.009999999776482582
            ]
        }
    ],
    "materials" : [
        {
            "doubleSided" : true,
            "name" : "AdventureMaterial",
            "pbrMetallicRoughness" : {
                "baseColorTexture" : {
                    "index" : 0
                },
                "metallicFactor" : 0.5,
                "roughnessFactor" : 0.7354946732521057
            }
        }
    ],
    "meshes" : [
        {
            "name" : "Mesh.035",
            "primitives" : [
                {
                    "attributes" : {
                        "POSITION" : 0,
                        "NORMAL" : 1,
                        "TANGENT" : 2,
                        "TEXCOORD_0" : 3,
                        "TEXCOORD_1" : 4
                    },
                    "indices" : 5,
                    "material" : 0
                }
            ]
        }
    ],
    "textures" : [
        {
            "sampler" : 0,
            "source" : 0
        }
    ],
    "images" : [
        {
            "bufferView" : 6,
            "mimeType" : "image/png",
            "name" : "PolyAdventureTexture_01"
        }
    ],
    "accessors" : [
        {
            "bufferView" : 0,
            "componentType" : 5126,
            "count" : 296,
            "max" : [
                53.0927734375,
                53.92474365234375,
                0
            ],
            "min" : [
                -53.0927734375,
                -53.9248046875,
                -152.3997802734375
            ],
            "type" : "VEC3"
        },
        {
            "bufferView" : 1,
            "componentType" : 5126,
            "count" : 296,
            "type" : "VEC3"
        },
        {
            "bufferView" : 2,
            "componentType" : 5126,
            "count" : 296,
            "type" : "VEC4"
        },
        {
            "bufferView" : 3,
            "componentType" : 5126,
            "count" : 296,
            "type" : "VEC2"
        },
        {
            "bufferView" : 4,
            "componentType" : 5126,
            "count" : 296,
            "type" : "VEC2"
        },
        {
            "bufferView" : 5,
            "componentType" : 5123,
            "count" : 300,
            "type" : "SCALAR"
        }
    ],
    "bufferViews" : [
        {
            "buffer" : 0,
            "byteLength" : 3552,
            "byteOffset" : 0
        },
        {
            "buffer" : 0,
            "byteLength" : 3552,
            "byteOffset" : 3552
        },
        {
            "buffer" : 0,
            "byteLength" : 4736,
            "byteOffset" : 7104
        },
        {
            "buffer" : 0,
            "byteLength" : 2368,
            "byteOffset" : 11840
        },
        {
            "buffer" : 0,
            "byteLength" : 2368,
            "byteOffset" : 14208
        },
        {
            "buffer" : 0,
            "byteLength" : 600,
            "byteOffset" : 16576
        },
        {
            "buffer" : 0,
            "byteLength" : 23856,
            "byteOffset" : 17176
        }
    ],
    "samplers" : [
        {
            "magFilter" : 9729,
            "minFilter" : 9987
        }
    ],
    "buffers" : [
        {
            "byteLength" : 41032,
            "uri" : "data:application/octet-stream;base64,"
        }
    ]
}
