{
    "asset" : {
        "generator" : "Khronos glTF Blender I/O v1.5.17",
        "version" : "2.0"
    },
    "scene" : 0,
    "scenes" : [
        {
            "name" : "Scene",
            "nodes" : [
                0
            ]
        }
    ],
    "nodes" : [
        {
            "mesh" : 0,
            "name" : "SM_Item_Pouch_01",
            "rotation" : [
                0.7071068286895752,
                0,
                0,
                0.7071067094802856
            ],
            "scale" : [
                0.009999999776482582,
                0.009999999776482582,
                0.009999999776482582
            ]
        }
    ],
    "materials" : [
        {
            "doubleSided" : true,
            "name" : "AdventureMaterial",
            "pbrMetallicRoughness" : {
                "baseColorTexture" : {
                    "index" : 0
                },
                "metallicFactor" : 0.5,
                "roughnessFactor" : 0.7354946732521057
            }
        }
    ],
    "meshes" : [
        {
            "name" : "Mesh.209",
            "primitives" : [
                {
                    "attributes" : {
                        "POSITION" : 0,
                        "NORMAL" : 1,
                        "TANGENT" : 2,
                        "TEXCOORD_0" : 3,
                        "TEXCOORD_1" : 4
                    },
                    "indices" : 5,
                    "material" : 0
                }
            ]
        }
    ],
    "textures" : [
        {
            "sampler" : 0,
            "source" : 0
        }
    ],
    "images" : [
        {
            "bufferView" : 6,
            "mimeType" : "image/png",
            "name" : "PolyAdventureTexture_01"
        }
    ],
    "accessors" : [
        {
            "bufferView" : 0,
            "componentType" : 5126,
            "count" : 512,
            "max" : [
                9.123512268066406,
                4.516658782958984,
                -1.566956598253455e-06
            ],
            "min" : [
                -9.123512268066406,
                -3.9691009521484375,
                -14.959014892578125
            ],
            "type" : "VEC3"
        },
        {
            "bufferView" : 1,
            "componentType" : 5126,
            "count" : 512,
            "type" : "VEC3"
        },
        {
            "bufferView" : 2,
            "componentType" : 5126,
            "count" : 512,
            "type" : "VEC4"
        },
        {
            "bufferView" : 3,
            "componentType" : 5126,
            "count" : 512,
            "type" : "VEC2"
        },
        {
            "bufferView" : 4,
            "componentType" : 5126,
            "count" : 512,
            "type" : "VEC2"
        },
        {
            "bufferView" : 5,
            "componentType" : 5123,
            "count" : 720,
            "type" : "SCALAR"
        }
    ],
    "bufferViews" : [
        {
            "buffer" : 0,
            "byteLength" : 6144,
            "byteOffset" : 0
        },
        {
            "buffer" : 0,
            "byteLength" : 6144,
            "byteOffset" : 6144
        },
        {
            "buffer" : 0,
            "byteLength" : 8192,
            "byteOffset" : 12288
        },
        {
            "buffer" : 0,
            "byteLength" : 4096,
            "byteOffset" : 20480
        },
        {
            "buffer" : 0,
            "byteLength" : 4096,
            "byteOffset" : 24576
        },
        {
            "buffer" : 0,
            "byteLength" : 1440,
            "byteOffset" : 28672
        },
        {
            "buffer" : 0,
            "byteLength" : 23856,
            "byteOffset" : 30112
        }
    ],
    "samplers" : [
        {
            "magFilter" : 9729,
            "minFilter" : 9987
        }
    ],
    "buffers" : [
        {
            "byteLength" : 53968,
            "uri" : "data:application/octet-stream;base64,"
        }
    ]
}
